<?xml version="1.0" encoding="utf-8"?>
<!-- Generator: Adobe Illustrator 15.1.0, SVG Export Plug-In . SVG Version: 6.00 Build 0)  -->
<!DOCTYPE svg PUBLIC "-//W3C//DTD SVG 1.1//EN" "http://www.w3.org/Graphics/SVG/1.1/DTD/svg11.dtd">
<svg version="1.1" xmlns="http://www.w3.org/2000/svg" xmlns:xlink="http://www.w3.org/1999/xlink" x="0px" y="0px" width="612px"
	 height="792px" viewBox="0 0 612 792" enable-background="new 0 0 612 792" xml:space="preserve">
<g id="Layer_1">
</g>
<g id="Layer_2">
</g>
<g id="Layer_3">
</g>
<g id="Layer_4">
	<g>
		<g>
			<defs>
				<path id="SVGID_1_" d="M530.644,580.128c-9.568-25.523-31.637-15.066-35.063-33.339c-2.391-12.744,0.195-34.354-15.438-40.081
					c3.81-10.353,6.381-23.205,7.444-37.577c2.282-30.836-23.984-87.938-42.257-109.637c-18.273-21.699-46.823-66.237-50.249-101.64
					c-3.428-35.403-7.064-58.912-20.769-90.888c-13.702-31.977-62.599-46.158-95.719-37.021
					c-33.121,9.136-35.712,42.561-40.281,59.691c-4.567,17.13,0.152,119.208-1.974,121.895
					c-69.664,87.936-57.104,83.367-60.528,95.929c-3.425,12.563-26.267,57.103-31.978,71.948
					c-3.275,8.516,1.715,16.652,6.569,22.046c-2.735,3.416-4.898,7.259-6.569,9.932c-5.708,9.137-9.135,12.564-28.55,12.564
					c-19.415,0-26.515,8.32-25.126,23.981c0.806,9.1,12.563,14.846,0,45.682c-12.562,30.837-2.285,33.119,5.711,35.403
					c7.992,2.285,63.532,7.259,106.21,28.55c29.321,14.629,46.125-1.394,54.228-16.277c16.256-6.326,47.922-5.42,71.397-5.42
					c17.354,0,35.713,2.015,54.076,6.991c5.737,11.804,16.833,22.299,37.202,21.815c33.498-0.798,39.083-28.713,55.832-41.477
					C490.703,611.092,538.664,601.516,530.644,580.128z"/>
			</defs>
			<clipPath id="SVGID_2_">
				<use xlink:href="#SVGID_1_"  overflow="visible"/>
			</clipPath>
			<path clip-path="url(#SVGID_2_)" fill="#F57E22" d="M236.338,311.53c2.126-2.687-7.995-106.212-3.428-123.342
				c4.569-17.13,12.562-49.107,45.683-58.243c33.121-9.137,82.017,5.045,95.719,37.021c13.704,31.976,17.341,55.484,20.769,90.888
				c3.426,35.403,31.976,79.941,50.249,101.64c18.272,21.699,44.539,78.801,42.257,109.637
				c-2.282,30.834-11.419,54.818-25.124,61.67c-13.706,6.852-18.273,62.812-20.559,77.658c-2.283,14.845-4.571,57.103-31.978,44.54
				c-27.407-12.564-55.961-17.131-82.225-17.131c-26.27,0-62.813-1.143-76.519,7.994c-13.704,9.137-44.537-3.428-63.953-29.694
				C167.815,587.9,157.538,507.96,157.538,507.96s-19.413-13.705-13.705-28.553c5.711-14.846,28.553-59.386,31.978-71.948
				C179.234,394.897,166.674,399.466,236.338,311.53z"/>
			<path clip-path="url(#SVGID_2_)" fill="#F89A4B" d="M322.47,262.338c-9.557-10.425-11.294-15.644-12.163-28.676
				c-0.717-10.723-0.493-28.197,11.294-34.75c15.637-8.692,30.412-2.608,35.625,22.589c5.213,25.196-4.349,43.439-14.774,46.915
				C332.025,271.894,322.47,262.338,322.47,262.338z"/>
			<path clip-path="url(#SVGID_2_)" fill="#F47523" d="M320.295,264.513c-9.557-10.425-11.293-15.644-12.164-28.677
				c-0.715-10.722-0.492-28.196,11.296-34.749c15.637-8.693,30.412-2.607,35.624,22.589c5.213,25.196-4.349,43.439-14.773,46.915
				C329.851,274.067,320.295,264.513,320.295,264.513z"/>
			<g clip-path="url(#SVGID_2_)">
				<path fill="#FFFFFF" d="M309.601,219.015c-1.95,6.602-1.86,14.161-1.489,19.734c0.799,11.964,2.394,16.752,11.168,26.323
					c0,0,8.771,8.771,18.342,5.58c9.572-3.189,18.348-19.938,13.563-43.068c-0.678-3.272-1.545-6.153-2.553-8.735
					C335.028,209.495,317.528,216.213,309.601,219.015z"/>
				<path fill="#E8E8E8" d="M318.481,206.849c-4.693,2.609-7.386,7.109-8.881,12.166c7.928-2.802,25.428-9.521,39.031-0.165
					C342.527,203.185,330.805,200,318.481,206.849z"/>
			</g>
			<path clip-path="url(#SVGID_2_)" fill="#F89A4B" d="M308.908,247.744c1.148-6.328-24.133-30.312-30.411,3.588
				C272.218,285.231,307.313,256.516,308.908,247.744z"/>
			<path clip-path="url(#SVGID_2_)" fill="#F89A4B" d="M259.384,271.201c0,0-13.074-4.671-16.804-32.672
				c-3.461-25.977,8.399-42.011,17.735-42.011c9.336,0,22.403,6.531,25.205,28.94C287.999,245.259,271.518,267.468,259.384,271.201z
				"/>
			<path clip-path="url(#SVGID_2_)" fill="#F47523" d="M257.209,273.375c0,0-13.073-4.671-16.804-32.672
				c-3.46-25.976,8.399-42.011,17.736-42.011c9.335,0,22.402,6.531,25.204,28.939C285.824,247.433,269.344,269.642,257.209,273.375z
				"/>
			<ellipse clip-path="url(#SVGID_2_)" cx="329.823" cy="242.738" rx="13.161" ry="18.346"/>
			<path clip-path="url(#SVGID_2_)" fill="#F47523" d="M309.082,251.181c1.654-6.215-21.612-32.157-30.602,1.125
				C269.492,285.59,306.785,259.796,309.082,251.181z"/>
			<g clip-path="url(#SVGID_2_)">
				<path fill="#FFFFFF" d="M273.478,273.521c16.763,0.184,40.907,1.122,57.842,2.349
					C315.872,266.886,294.483,261.073,273.478,273.521z"/>
				<path fill="#C9C9C9" d="M262.133,321.843c4,4,9.458,38.884,46.243,10.507c19.68-15.18,36.88-28.596,36.783-28.376
					c0.082,0.226,5.505-5.815,9.478-4.096c-0.422-1.343-9.678-16.074-23.317-24.008c-16.935-1.227-41.079-2.165-57.842-2.349
					c-3.259,1.935-6.512,4.302-9.731,7.172c-10.403,9.279-13.706,12.564-13.706,26.267c0,0.332-0.002,0.639-0.002,0.945
					C255.205,311.152,256.878,316.587,262.133,321.843z"/>
				<path fill="#C2C1C1" d="M332.833,298.695C332.932,298.476,332.784,298.563,332.833,298.695L332.833,298.695z"/>
			</g>
			<g clip-path="url(#SVGID_2_)">
				<path fill="#FFFFFF" d="M325.971,393.16c6.676,1.113,37.828,4.451,48.95-17.799c1.531-3.063,2.932-5.385,4.242-7.098
					c-2.198-9.808-3.716-25.201-6.923-31.611c-3.968-7.933-14.815-27.912-17.604-36.774c-3.973-1.72-24.456,9.811-46.023,23.241
					c-39.436,24.556-43.794-1.656-45.896-6.909c-1.414-3.536-7.512-5.058-12.678-8.305c-0.056,12.377-1.303,5.153-7.989,20.755
					c-6.854,15.988-26.017,25.171-19.287,46.482c0.631,1.998,0.483,4.645-0.229,7.799c3.832,4.356,8.353,10.656,13.023,11.367
					c7.51,1.14,18.434,1.576,10.924,3.856c-7.371,2.242-31.726,14.426-39.888,22.428c-9.157,19.585-18.805,42.141-19.364,62.242
					c-1.143,41.114,43.395,137.044,102.782,129.05c59.388-7.993,91.363-26.268,113.062-85.653
					c14.915-40.822,10.944-76.246,6.633-97.003c-9.368-3.527-20.688-19.676-30.34-21.606
					C368.245,405.396,325.971,393.16,325.971,393.16z"/>
				<path fill="#C9C9C9" d="M227.847,386.595c-3.551-3.551-1.31-3.354-5.143-7.711c-2.043,9.066-9.005,26.518-16.109,41.709
					c8.162-8.002,41.864-24.5,49.53-23.715C265.049,397.793,233.631,392.379,227.847,386.595z"/>
				<path fill="#C9C9C9" d="M382.426,376.575c-1.364-1.017-2.435-4.182-3.385-8.348c-1.306,1.718-2.697,4.044-4.219,7.112
					c-11.043,22.289-42.205,19.062-48.886,17.974c0,0,41.151,13.833,52.218,16.323c17.589,3.954,26.681,18.986,33.74,27.498
					c-1.991-9.431-6.141-23.88-6.508-26.379C404.218,402.766,387.009,379.988,382.426,376.575z"/>
				<path fill="#E8E8E8" d="M289.754,385.394c-4.333-5.2-5.111-16.43-6.808-8.918c-2.732,12.103-23.877,16.059-15.938,14.462
					c16.723-3.363,12.238,22.25,13.352,17.799c1.112-4.45,7.788-13.352,20.026-16.688
					C300.386,392.049,293.739,390.182,289.754,385.394z"/>
			</g>
			<path clip-path="url(#SVGID_2_)" fill="#E8E8E8" d="M276.058,426.581c0.403-8.35-9.338,92.507-4.245,116.269
				c5.093,23.763,11.882,29.705,9.335,19.519C278.603,552.185,272.662,497.019,276.058,426.581z"/>
			<path clip-path="url(#SVGID_2_)" fill="#FEDA00" d="M447.614,510.242c-17.217,6.122-61.67-21.699-60.527,14.847
				c1.143,36.545-7.994,78.801-10.279,87.937c-2.284,9.137,1.184,52.623,42.173,51.649c33.498-0.798,39.083-28.713,55.832-41.477
				c15.891-12.106,63.852-21.683,55.831-43.07c-9.568-25.523-31.637-15.066-35.063-33.339
				C492.153,528.516,499.006,491.971,447.614,510.242z"/>
			<path clip-path="url(#SVGID_2_)" fill="#F57E22" d="M437.765,484.805c-15.154,0.657-19.035,6.852-22.078,11.418
				c-3.047,4.57-4.566,29.692,7.614,35.021c12.179,5.325,33.498,6.092,42.634-9.896c9.134-15.988,15.225-12.942,14.463-15.226
				C479.637,503.837,472.783,483.284,437.765,484.805z"/>
			<g clip-path="url(#SVGID_2_)">
				<path fill="#FFFFFF" d="M204.421,397.471c5.257-5.987-24.104,44.021-26.203,59.13c-1.978,14.223,0.598,35.905,28.515,56.643
					c27.915,20.738,53.561,33.91,51.126,52.523c-1.483,11.324-6.381,17.546-23.929,16.75c-17.547-0.797-78.166-74.977-77.368-90.927
					c0.798-15.953,27.118-69.394,27.917-78.168C185.277,404.649,200.21,402.268,204.421,397.471z"/>
				<path fill="#F57E22" d="M202.247,395.297c0,9.094-27.917,50.248-27.917,64.606c0,14.357,0,31.107,27.917,51.846
					c27.914,20.737,56.459,40.827,53.438,51.843c-4.438,16.173-6.381,17.547-23.929,16.75
					c-17.547-0.796-78.166-74.977-77.367-90.926c0.798-15.954,27.118-69.395,27.916-78.167
					C183.103,402.475,202.247,388.914,202.247,395.297z"/>
			</g>
			<path clip-path="url(#SVGID_2_)" fill="#FEDA00" d="M261.849,627.186c-3.189,13.562-19.939,50.251-59.771,30.38
				c-42.678-21.291-98.218-26.265-106.21-28.55c-7.997-2.284-18.273-4.566-5.711-35.403c12.563-30.836,0.806-36.582,0-45.682
				c-1.389-15.661,5.711-23.981,25.126-23.981c19.415,0,22.842-3.428,28.55-12.564c5.711-9.136,17.13-31.976,37.687-4.566
				C202.078,534.226,267.157,604.616,261.849,627.186z"/>
			<path clip-path="url(#SVGID_2_)" fill="#F89A4B" d="M338.891,170.535c8.773-4.783,16.751-6.38,21.536-4.783
				c4.786,1.594-15.156-23.133-20.739-19.942C334.104,149.001,338.891,170.535,338.891,170.535z"/>
			<path clip-path="url(#SVGID_2_)" fill="#F89A4B" d="M457.203,488.59l15.533,8.104c0,0-4.053,2.03-7.429,8.107
				c-3.376,6.076-3.376,6.076-3.376,6.076S463.282,490.616,457.203,488.59z"/>
			<g clip-path="url(#SVGID_2_)">
				<path fill="#FFFFFF" d="M244.852,221.805c-1.732,5.631-2.444,12.695-1.347,20.936c3.188,23.924,14.358,27.917,14.358,27.917
					c10.367-3.189,24.45-22.165,22.332-39.085c-0.695-5.559-2.144-9.941-4.025-13.408
					C267.738,215.739,251.638,219.06,244.852,221.805z"/>
				<path fill="#E8E8E8" d="M258.659,206.849c-5.015,0-10.877,5.421-13.807,14.956c6.786-2.745,22.886-6.066,31.318-3.641
					C271.573,209.69,264.32,206.849,258.659,206.849z"/>
			</g>
			
				<ellipse transform="matrix(0.9856 -0.1688 0.1688 0.9856 -37.4426 47.5509)" clip-path="url(#SVGID_2_)" cx="260.874" cy="243.935" rx="10.769" ry="18.745"/>
			<path clip-path="url(#SVGID_2_)" d="M446.313,237.155c0.393,2.642,2.154-9.708,0.413-10.137
				c-1.742-0.433-10.005-1.855-15.658-1.405c-5.649,0.45-8.701-2.15-8.987-0.991c-0.286,1.162,1.611,5.937,5.958,5.779
				C432.385,230.245,445.962,234.791,446.313,237.155z"/>
			<path clip-path="url(#SVGID_2_)" d="M457.661,235.324c-0.035,1.633-1.807-9.234-0.044-9.559
				c1.765-0.329,10.099-1.259,15.712-0.475c5.616,0.783,8.814-1.631,9.034-0.457c0.218,1.176-1.963,5.831-6.293,5.417"/>
			<path clip-path="url(#SVGID_2_)" d="M439.495,206.333c0.49-3.301,1.631,15.978-0.55,16.515
				c-2.176,0.542-11.449-1.516-18.518-2.079c-7.065-0.563-10.881,2.69-11.24,1.24c-0.358-1.452,2.016-7.425,7.45-7.228
				C422.076,214.975,439.056,209.289,439.495,206.333z"/>
			<path clip-path="url(#SVGID_2_)" d="M467.857,206.921c0.077-2.038-4.701,14.097-2.525,14.634
				c2.18,0.542,14.275-0.38,21.346-0.942c7.069-0.565,10.882,2.688,11.243,1.24c0.359-1.454-2.02-7.425-7.456-7.229
				C485.03,214.82,467.748,209.906,467.857,206.921z"/>
			<path clip-path="url(#SVGID_2_)" d="M437.604,183.636c-1.31-2.822,10.485,11.37,8.527,13.024
				c-1.948,1.658-12.661,5.354-20.276,8.944c-7.607,3.593-9.757,8.271-10.931,7.36c-1.165-0.916-2.005-6.865,3.718-9.808
				C424.369,200.208,438.779,186.158,437.604,183.636z"/>
			<path clip-path="url(#SVGID_2_)" d="M464.159,180.085c1.033-2.164-11.775,12.874-9.61,14.544
				c2.164,1.679,16.012,6.754,24.12,9.697c8.101,2.935,10.818,8.366,11.893,6.981c1.074-1.391,1.217-9.037-4.904-11.553
				C479.535,197.242,462.646,183.257,464.159,180.085z"/>
			<g clip-path="url(#SVGID_2_)">
				<path fill="#FEDA00" d="M245.1,273.05c-1.595,5.582-3.986,12.763,1.595,15.952c5.585,3.189,19.942,27.118,33.5,31.106
					c13.559,3.988,35.893-7.976,43.869-14.358c7.977-6.378,20.738-13.559,25.523-13.559c4.786,0,7.976-22.332,3.189-24.725
					c-4.787-2.393-32.701-11.166-39.879-16.75c-7.18-5.581-27.119-8.773-35.891-2.391C268.23,254.703,245.1,273.05,245.1,273.05z"/>
				<g>
					<path fill="#9D490C" d="M243.508,284.934c1.091,0.061,2.276-0.021,3.463,0.268c1.173,0.278,2.236,0.79,3.249,1.335
						c2.02,1.113,3.894,2.405,5.754,3.71c3.624,2.594,7.836,4.297,12.131,5.521c8.617,2.438,17.847,2.712,26.584,0.767
						c4.384-0.968,8.572-2.526,12.654-4.474c4.111-1.877,8.186-3.838,12.229-5.862c4.047-2.02,8.055-4.117,12.086-6.189
						c2.021-1.029,4.036-2.067,6.141-2.983c1.073-0.432,2.095-0.92,3.415-1.042c0.668,0.011,1.157,0.084,1.741,0.187
						c0.561,0.107,1.119,0.256,1.672,0.513c-1.132,0.373-2.341,0.374-3.368,0.342c-0.947,0.082-2.032,0.547-3.04,0.972
						c-2.044,0.901-4.053,1.946-6.062,2.981c-4.012,2.087-8.02,4.208-12.065,6.252c-4.044,2.048-8.122,4.035-12.239,5.938
						c-2.049,0.952-4.139,1.909-6.298,2.677c-2.154,0.778-4.362,1.404-6.597,1.903c-8.949,1.97-18.373,1.667-27.178-0.846
						c-4.378-1.296-8.68-3.085-12.411-5.812c-1.83-1.314-3.679-2.615-5.617-3.708c-0.97-0.537-1.966-1.022-2.999-1.277
						c-1.023-0.267-2.131-0.208-3.294-0.28L243.508,284.934z"/>
				</g>
				<path d="M298.538,253.904c-3.269-0.365-0.797,2.393,1.595,3.189C302.526,257.892,305.717,254.701,298.538,253.904z"/>
				<path d="M278.497,253.505c0,0-5.833,3.888-3.888,5.186C276.554,259.985,280.442,252.858,278.497,253.505z"/>
			</g>
			<path clip-path="url(#SVGID_2_)" d="M100.617,187.702c0.196-1.314,1.071,4.828,0.204,5.041c-0.866,0.214-4.975,0.924-7.786,0.698
				c-2.812-0.223-4.328,1.07-4.469,0.493c-0.145-0.577,0.8-2.951,2.962-2.873C93.689,191.137,100.441,188.876,100.617,187.702z"/>
			<path clip-path="url(#SVGID_2_)" d="M106.431,188.279c-0.051-0.811-0.722,4.623,0.161,4.75c0.883,0.131,5.043,0.433,7.816-0.066
				c2.777-0.497,4.415,0.643,4.5,0.055c0.084-0.588-1.087-2.86-3.232-2.571C113.533,190.738,106.501,189.464,106.431,188.279z"/>
			<path clip-path="url(#SVGID_2_)" d="M422.158,184.598c0,0,1.816,43.539-0.906,47.167
				C418.529,235.395,439.394,216.346,422.158,184.598z"/>
			<path clip-path="url(#SVGID_2_)" d="M421.853,254.706c0,0,22.679-9.976,24.492-15.419
				C448.157,233.842,446.345,261.96,421.853,254.706z"/>
			<path clip-path="url(#SVGID_2_)" d="M471.188,256.442c0,0,20.861-0.906,24.49,2.721c3.628,3.629,8.164,13.606,8.164,13.606
				l-11.79,1.816C492.053,274.585,493.867,267.326,471.188,256.442z"/>
			<path clip-path="url(#SVGID_2_)" d="M403.34,291.616c-5.443,7.257-3.629,13.607-10.886,14.514s-14.513-5.443-14.513-5.443
				s13.604-1.813,15.42-6.349c1.815-4.535,7.257-13.607,7.257-13.607L403.34,291.616z"/>
			<path clip-path="url(#SVGID_2_)" d="M417.33,315.875c-7.127,8.215-4.751,15.404-14.252,16.431
				c-9.501,1.026-18.573-3.152-18.573-3.152s17.383-5.064,19.762-10.199c2.376-5.134,9.501-15.403,9.501-15.403L417.33,315.875z"/>
			<path clip-path="url(#SVGID_2_)" d="M434.389,347.782c-10.26,10.833-6.837,20.313-20.516,21.668
				c-13.676,1.35-30.194-2.622-30.194-2.622s28.483-8.213,31.902-14.984c3.423-6.769,13.677-20.313,13.677-20.313L434.389,347.782z"
				/>
			<path clip-path="url(#SVGID_2_)" d="M384.297,270.411c0,0,3.631-11.788,9.072-16.326c5.441-4.537,7.255,12.699,7.255,12.699
				S384.297,267.688,384.297,270.411z"/>
			<path clip-path="url(#SVGID_2_)" d="M436.604,374.759c0,0,3.63-11.789,9.072-16.326c5.441-4.537,7.255,12.699,7.255,12.699
				S436.604,372.036,436.604,374.759z"/>
			<path clip-path="url(#SVGID_2_)" d="M437.949,396.151c0,0,6.82-10.764,17.039-14.906c10.221-4.146,13.627,11.595,13.627,11.595
				S437.949,393.666,437.949,396.151z"/>
			<path clip-path="url(#SVGID_2_)" d="M447.927,411.571c0,0,6.819-6.383,17.041-8.84c10.221-2.456,13.628,6.876,13.628,6.876
				S447.927,410.098,447.927,411.571z"/>
			<path clip-path="url(#SVGID_2_)" d="M453.939,472.981c0,0,8.818-7.301,22.033-10.11c13.215-2.811,17.619,7.865,17.619,7.865
				S453.939,471.296,453.939,472.981z"/>
			<path clip-path="url(#SVGID_2_)" d="M464.153,479.626c0,0,9.197-1.627,19.104,1.892c9.904,3.521,7.667,13.198,7.667,13.198
				S464.958,478.39,464.153,479.626z"/>
			<path clip-path="url(#SVGID_2_)" d="M454.269,445.327c0,0,7.591-14.696,18.972-20.35c11.376-5.658,15.169,15.827,15.169,15.827
				S454.269,441.934,454.269,445.327z"/>
			<path clip-path="url(#SVGID_2_)" d="M208.416,388.79c0,0-5.801-17.177-14.5-23.786c-8.695-6.614-11.593,18.504-11.593,18.504
				S208.416,384.827,208.416,388.79z"/>
			<path clip-path="url(#SVGID_2_)" d="M219.628,355.675c0,0-4.232-7.466-10.572-10.338c-6.342-2.869-8.455,8.043-8.455,8.043
				S219.628,353.95,219.628,355.675z"/>
			<path clip-path="url(#SVGID_2_)" d="M234.774,334.39c0,0-4.607-5.568-11.51-7.71c-6.902-2.143-9.202,5.999-9.202,5.999
				S234.774,333.104,234.774,334.39z"/>
			<path clip-path="url(#SVGID_2_)" d="M244.56,316.461c0,0-2.667-4.823-6.661-6.679c-3.994-1.857-5.326,5.195-5.326,5.195
				S244.56,315.347,244.56,316.461z"/>
			<path clip-path="url(#SVGID_2_)" d="M188.968,419.929c0,0-4.676-13.893-11.681-19.239c-7.01-5.346-9.344,14.965-9.344,14.965
				S188.968,416.721,188.968,419.929z"/>
			<path clip-path="url(#SVGID_2_)" d="M158.092,487.603c0,0-3.631-11.788-9.07-16.326c-5.445-4.536-7.258,12.699-7.258,12.699
				S158.092,484.881,158.092,487.603z"/>
			<path clip-path="url(#SVGID_2_)" d="M170.435,457.873c0,0-3.631-11.788-9.074-16.325c-5.441-4.538-7.254,12.699-7.254,12.699
				S170.435,455.151,170.435,457.873z"/>
			<path clip-path="url(#SVGID_2_)" d="M406.862,409.022c0,0,24.013,1.473,28.24,3.116c4.496,1.747,4.752,21.234,4.752,21.234
				l-32.992-19.813V409.022z"/>
			<path clip-path="url(#SVGID_2_)" d="M412.275,438.487c0,0,26.905,12.856,26.905,16.485c0,3.628-2.722,14.046-2.722,14.046
				l-23.277-23.272L412.275,438.487z"/>
			<polygon clip-path="url(#SVGID_2_)" points="414.092,476.521 425.832,487.202 417.989,491.298 412.276,485.593 			"/>
			<path clip-path="url(#SVGID_2_)" d="M367.655,653.429c-1.734-4.742-4.624-38.612,1.732-56.228
				c6.357-17.617-17.915,28.451-17.915,38.613c0,10.163,0,29.133,0,29.133L367.655,653.429z"/>
			<path clip-path="url(#SVGID_2_)" d="M338.19,643.965c0,0-2.244-29.281,2.244-36.088c4.488-6.808-10.094,4.769-11.778,9.533
				c-1.683,4.767-4.487,25.195-4.487,25.195L338.19,643.965z"/>
			<path clip-path="url(#SVGID_2_)" d="M275.272,616.336c1.42-5.682,3.923,19.632,2.802,22.437
				c-1.122,2.805-15.143,2.805-15.143,2.805S271.346,632.039,275.272,616.336z"/>
		</g>
		<g>
			<path fill="#9D490C" d="M529.826,580.807c-1.373-3.666-3.22-7.122-5.737-10.03c-2.5-2.923-5.679-5.175-9.19-6.86
				c-3.502-1.729-7.329-2.88-11.054-4.733c-1.851-0.936-3.676-2.112-5.175-3.697c-1.51-1.572-2.604-3.529-3.258-5.558
				c-0.671-2.048-0.921-4.1-1.173-6.104c-0.235-2.016-0.398-4.021-0.561-6.019c-0.322-3.99-0.632-7.957-1.315-11.838
				c-0.686-3.864-1.743-7.688-3.71-10.984c-0.981-1.642-2.204-3.122-3.653-4.342c-1.445-1.229-3.063-2.221-4.79-3.165l-0.005-0.002
				l-0.484-0.181l0.172-0.494c3.046-8.745,4.888-17.875,6.021-27.06c0.277-2.299,0.515-4.603,0.701-6.91
				c0.185-2.319,0.367-4.611,0.358-6.888c0.001-4.578-0.517-9.167-1.29-13.708c-1.576-9.089-4.168-18.005-7.223-26.737
				c-3.082-8.728-6.594-17.312-10.544-25.689c-3.948-8.375-8.285-16.577-13.139-24.436c-2.433-3.924-4.998-7.764-7.781-11.407
				c-1.382-1.832-2.868-3.532-4.373-5.374c-1.482-1.817-2.933-3.656-4.357-5.515c-5.689-7.438-10.979-15.163-15.921-23.106
				c-4.932-7.948-9.514-16.122-13.608-24.548c-4.086-8.427-7.717-17.106-10.477-26.103c-1.375-4.498-2.534-9.073-3.37-13.723
				c-0.417-2.325-0.752-4.668-0.985-7.026l-0.68-6.944c-1.848-18.481-4.297-36.923-9.407-54.725
				c-2.52-8.902-5.637-17.633-9.177-26.196c-0.899-2.152-1.749-4.269-2.811-6.262c-1.052-2.007-2.249-3.939-3.577-5.782
				c-2.654-3.688-5.805-7.025-9.276-9.992c-6.96-5.935-15.132-10.416-23.722-13.665c-8.607-3.239-17.68-5.271-26.851-6.073
				c-9.163-0.781-18.477-0.354-27.4,1.795c-4.456,1.075-8.782,2.633-12.799,4.783c-4.015,2.146-7.692,4.901-10.831,8.188
				c-3.146,3.283-5.743,7.077-7.831,11.14c-2.093,4.065-3.691,8.389-4.998,12.807c-1.312,4.42-2.322,8.939-3.36,13.482l-0.803,3.412
				c-0.261,1.13-0.615,2.305-0.827,3.35c-0.438,2.2-0.672,4.506-0.873,6.8c-0.731,9.217-0.851,18.531-0.954,27.822
				c-0.077,9.298-0.034,18.601,0.043,27.905l0.307,27.918c0.084,9.313,0.249,18.609,0.051,27.962
				c-0.034,1.172-0.075,2.343-0.166,3.538c-0.058,0.614-0.085,1.169-0.261,1.912c-0.026,0.099-0.056,0.206-0.119,0.353
				c-0.061,0.165-0.26,0.431-0.253,0.412l-0.271,0.342l-0.542,0.684l-4.324,5.476l-8.597,10.992
				c-5.704,7.348-11.355,14.736-16.898,22.201c-5.535,7.468-10.987,15.001-16.12,22.73c-2.557,3.868-5.042,7.785-7.278,11.816
				c-2.194,4.032-4.294,8.195-5.063,12.586c-0.393,2.175-0.354,4.535-0.833,6.948c-0.477,2.419-1.314,4.617-2.138,6.817
				c-1.689,4.379-3.569,8.646-5.475,12.902c-3.827,8.502-7.823,16.912-11.797,25.328c-3.958,8.419-7.998,16.815-11.653,25.33
				c-0.451,1.065-0.892,2.134-1.307,3.204c-0.41,1.043-0.698,2.074-0.871,3.161c-0.348,2.157-0.167,4.379,0.39,6.52
				c1.137,4.304,3.642,8.215,6.46,11.841l0.279,0.359l-0.261,0.288l-0.004,0.006c-2.252,2.808-4.125,5.909-6.021,9.019
				c-1.929,3.07-3.843,6.292-6.744,8.721c-2.899,2.448-6.618,3.587-10.224,4.165c-3.64,0.581-7.304,0.732-10.953,0.78
				c-3.647-0.02-7.239,0.116-10.765,0.834c-3.496,0.701-6.935,1.962-9.645,4.206c-2.732,2.219-4.473,5.446-5.202,8.895
				c-0.377,1.725-0.546,3.501-0.571,5.283c-0.013,0.892,0.011,1.785,0.063,2.679c0.06,0.885,0.111,1.815,0.276,2.619
				c0.328,1.69,1.036,3.329,1.771,4.98c0.742,1.651,1.507,3.335,2.127,5.086c1.264,3.5,1.861,7.261,1.807,10.975
				c-0.079,7.465-2.163,14.651-4.648,21.532c-1.304,3.451-2.627,6.763-3.711,10.209c-1.097,3.421-1.998,6.902-2.502,10.389
				c-0.471,3.447-0.529,7.087,0.919,9.93c0.72,1.405,1.824,2.537,3.225,3.364c1.396,0.837,3.035,1.391,4.746,1.89l1.303,0.373
				c0.435,0.128,0.798,0.213,1.242,0.311c0.855,0.185,1.741,0.345,2.627,0.501l5.365,0.88l10.785,1.738
				c7.19,1.199,14.368,2.518,21.509,4.021c14.279,3.008,28.446,6.71,42.225,11.636c6.887,2.462,13.675,5.227,20.282,8.398
				c1.663,0.79,3.279,1.641,4.889,2.371c1.625,0.744,3.275,1.425,4.951,2.025c3.349,1.203,6.806,2.08,10.308,2.482
				c3.498,0.399,7.046,0.287,10.458-0.472c3.413-0.751,6.669-2.158,9.598-4.092c5.889-3.882,10.372-9.684,13.808-15.936l0.19-0.346
				l0.353-0.132h0c5.13-1.932,10.45-2.938,15.759-3.721c5.317-0.761,10.655-1.223,15.993-1.549
				c10.679-0.64,21.36-0.731,32.028-0.721c5.333,0.031,10.661-0.021,16.017,0.163c5.345,0.187,10.684,0.563,15.999,1.145
				c10.632,1.159,21.176,3.135,31.483,5.975l0.22,0.061l0.1,0.203l0.001,0.003c1.766,3.587,3.992,6.949,6.701,9.868
				c2.705,2.92,5.899,5.378,9.429,7.197c7.079,3.687,15.282,4.694,23.212,4.098c3.976-0.29,7.917-1.014,11.67-2.304
				c3.754-1.281,7.297-3.14,10.506-5.47c6.469-4.664,11.416-11.093,16.218-17.554c2.418-3.235,4.833-6.508,7.536-9.586
				c2.697-3.068,5.718-5.963,9.243-8.179c3.484-2.211,7.155-3.992,10.834-5.706c3.685-1.705,7.399-3.31,11.093-4.94
				c7.36-3.278,14.768-6.556,21.382-10.968c3.259-2.221,6.371-4.773,8.418-7.975c1.009-1.594,1.702-3.351,1.886-5.17
				c0.199-1.817-0.109-3.674-0.777-5.429L529.826,580.807z M531.952,580.002c0.758,2.019,1.131,4.26,0.876,6.469
				c-0.235,2.212-1.091,4.306-2.25,6.112c-2.36,3.627-5.69,6.27-9.085,8.568c-6.885,4.534-14.368,7.779-21.771,11.033
				c-3.709,1.615-7.425,3.196-11.086,4.867c-3.652,1.677-7.281,3.42-10.638,5.524c-3.344,2.077-6.243,4.816-8.892,7.794
				c-2.649,2.984-5.059,6.209-7.495,9.435c-4.841,6.438-9.931,13.009-16.672,17.819c-3.343,2.4-7.048,4.319-10.953,5.628
				c-3.904,1.316-7.983,2.048-12.068,2.313c-4.082,0.255-8.203,0.123-12.251-0.577c-4.043-0.695-8.008-1.972-11.643-3.904
				c-3.638-1.922-6.92-4.502-9.677-7.539c-2.763-3.037-5.009-6.511-6.774-10.19l-0.001-0.003l0.318,0.264
				c-10.277-2.735-20.778-4.607-31.354-5.667c-5.289-0.532-10.597-0.859-15.909-0.998c-5.304-0.137-10.641-0.039-15.969-0.024
				c-10.655,0.08-21.309,0.265-31.915,0.991c-5.3,0.37-10.59,0.874-15.823,1.669c-5.218,0.812-10.436,1.86-15.283,3.735h0
				l0.543-0.478c-3.497,6.469-8.112,12.599-14.401,16.821c-3.125,2.1-6.646,3.655-10.336,4.496
				c-3.69,0.851-7.514,0.996-11.243,0.598c-7.479-0.772-14.538-3.733-20.971-7.025c-6.523-3.106-13.239-5.817-20.062-8.23
				c-13.657-4.811-27.709-8.5-41.9-11.496c-7.098-1.496-14.236-2.812-21.399-4.008l-10.764-1.74L99.7,631.37
				c-0.905-0.159-1.81-0.323-2.732-0.522c-0.445-0.096-0.967-0.222-1.404-0.352l-1.321-0.379c-1.772-0.521-3.622-1.123-5.356-2.158
				c-1.732-1.017-3.291-2.57-4.203-4.429c-0.931-1.851-1.302-3.854-1.407-5.781c-0.101-1.938,0.057-3.836,0.332-5.693
				c1.181-7.41,4.022-14.289,6.802-20.963c1.333-3.35,2.507-6.762,3.392-10.242c0.876-3.478,1.5-7.025,1.569-10.587
				c0.081-3.561-0.45-7.104-1.627-10.464c-0.58-1.685-1.306-3.324-2.041-4.997c-0.723-1.672-1.467-3.405-1.82-5.3
				c-0.185-0.983-0.218-1.877-0.275-2.806c-0.046-0.923-0.062-1.849-0.041-2.776c0.043-1.854,0.234-3.716,0.651-5.542
				c0.418-1.823,1.072-3.615,2.03-5.248c0.949-1.636,2.208-3.096,3.673-4.285c2.95-2.394,6.581-3.665,10.19-4.358
				c3.623-0.7,7.344-0.813,10.965-0.792c3.622-0.039,7.25-0.183,10.802-0.741c3.531-0.56,7.043-1.642,9.76-3.927
				c2.725-2.266,4.639-5.402,6.547-8.47c1.879-3.104,3.766-6.257,6.062-9.14l0.004-0.006l0.019,0.647
				c-3.357-3.278-6.233-7.294-7.555-12.019c-0.655-2.349-0.84-4.867-0.455-7.313c0.188-1.213,0.533-2.435,0.975-3.558
				c0.426-1.099,0.872-2.182,1.327-3.26c3.684-8.595,7.713-16.981,11.668-25.41c3.969-8.418,7.957-16.826,11.765-25.302
				c1.895-4.239,3.765-8.495,5.423-12.803c0.808-2.15,1.621-4.33,2.039-6.486c0.438-2.159,0.399-4.496,0.821-6.908
				c0.406-2.399,1.196-4.694,2.127-6.875c0.935-2.185,2.013-4.283,3.146-6.341c2.277-4.11,4.781-8.061,7.353-11.958
				c5.162-7.783,10.624-15.339,16.167-22.829c5.55-7.485,11.205-14.887,16.91-22.247l8.598-11.009l4.325-5.483l0.541-0.685
				l0.271-0.342c0.099-0.131-0.013,0.017-0.021,0.045c-0.005,0.014,0.006-0.019,0.017-0.061c0.096-0.39,0.154-1.001,0.198-1.544
				c0.086-1.125,0.127-2.281,0.161-3.435c0.195-9.26,0.031-18.581-0.054-27.881l-0.308-27.924
				c-0.078-9.311-0.121-18.623-0.045-27.94c0.104-9.319,0.22-18.635,0.959-27.979c0.206-2.339,0.438-4.673,0.907-7.04
				c0.256-1.235,0.582-2.29,0.844-3.426l0.796-3.383c1.035-4.529,2.055-9.102,3.392-13.607c1.332-4.503,2.972-8.951,5.141-13.167
				c2.164-4.211,4.876-8.18,8.174-11.623c3.291-3.447,7.155-6.341,11.348-8.582c4.192-2.249,8.699-3.855,13.282-4.978
				c9.185-2.251,18.71-2.721,28.079-1.963c9.375,0.781,18.646,2.815,27.477,6.096c8.813,3.293,17.234,7.853,24.483,13.98
				c3.614,3.063,6.917,6.527,9.717,10.385c1.4,1.927,2.67,3.955,3.787,6.065c1.136,2.114,2.031,4.32,2.935,6.457
				c3.606,8.623,6.797,17.44,9.385,26.441c5.251,18.01,7.795,36.639,9.724,55.16l0.709,6.948c0.233,2.272,0.567,4.538,0.981,6.792
				c0.829,4.509,1.977,8.968,3.341,13.365c2.753,8.789,6.296,17.347,10.339,25.661c4.043,8.317,8.576,16.404,13.459,24.271
				c4.892,7.862,10.133,15.514,15.755,22.861c1.406,1.835,2.838,3.65,4.298,5.439c1.444,1.758,3.008,3.577,4.418,5.471
				c2.846,3.771,5.433,7.696,7.88,11.697c4.881,8.01,9.21,16.319,13.148,24.802c3.919,8.491,7.477,17.155,10.453,26.03
				c2.967,8.872,5.471,17.931,6.95,27.215c0.726,4.64,1.194,9.342,1.129,14.076c-0.021,2.379-0.272,4.728-0.502,7.042
				c-0.237,2.327-0.525,4.648-0.854,6.964c-1.34,9.25-3.375,18.445-6.722,27.199l-0.313-0.675l0.005,0.002
				c2.033,0.428,3.964,1.413,5.591,2.757c1.63,1.343,3.003,2.981,4.093,4.764c2.184,3.586,3.316,7.616,4.067,11.602
				c0.745,4.003,1.096,8.029,1.457,12.014c0.182,1.991,0.362,3.976,0.611,5.935c0.263,1.958,0.532,3.905,1.133,5.662
				c0.6,1.77,1.52,3.385,2.782,4.71c1.26,1.331,2.844,2.369,4.56,3.235c3.447,1.726,7.334,2.902,11.023,4.713
				c3.7,1.769,7.202,4.233,9.916,7.412c2.736,3.155,4.712,6.883,6.145,10.701L531.952,580.002z"/>
		</g>
		<path fill="#F9FDFF" d="M457.58,486.27c-6.753-3.555-20.393-0.884-26.024-0.268c6.753-7.292,10.594-24.487,11.825-46.658
			c1.594-28.713-19.144-48.655-19.144-48.655s-4.063-5.356,7.748,12.934c12.03,18.627,9.575,75.36-6.153,83.58
			c-20.18,10.544-11.166,31.107-11.166,31.107c-0.146-15.453,2.019-24.301,11.166-28.717c0.957-0.463,21.582-4.283,29.532-0.994
			c5.873,2.432,18.112,8.093,18.112,8.093S464.902,490.121,457.58,486.27z"/>
		<polygon points="191.922,519.345 197.856,527.227 201.107,517.751 		"/>
		<polygon points="210.562,541.4 222.676,557.555 228.71,539.275 		"/>
	</g>
</g>
</svg>
